<?xml version="1.0" standalone="no"?>
<!DOCTYPE svg PUBLIC "-//W3C//DTD SVG 20010904//EN"
 "http://www.w3.org/TR/2001/REC-SVG-20010904/DTD/svg10.dtd">
<svg version="1.0" xmlns="http://www.w3.org/2000/svg"
 width="360.000000pt" height="348.000000pt" viewBox="0 0 360.000000 348.000000"
 preserveAspectRatio="xMidYMid meet">

<g transform="translate(0.000000,348.000000) scale(0.100000,-0.100000)"
fill="#000000" stroke="none">
<path d="M1612 3465 c-106 -23 -221 -85 -300 -162 -72 -71 -168 -207 -178
-252 -3 -14 -25 -66 -49 -116 -53 -107 -73 -200 -107 -507 l-22 -207 -28 -6
c-18 -4 -29 -14 -32 -28 -16 -82 -26 -160 -26 -194 l0 -40 -92 -7 c-114 -8
-244 -30 -290 -49 -55 -23 -85 -86 -56 -115 20 -20 29 -13 14 11 -17 27 -7 59
27 82 31 20 132 41 274 56 98 10 116 10 124 -2 5 -8 9 -17 9 -21 0 -5 -51 -8
-113 -8 -218 0 -327 -58 -225 -119 l32 -20 -93 0 c-69 1 -97 -3 -108 -14 -8
-8 -43 -99 -78 -203 -34 -104 -75 -220 -90 -259 -15 -38 -31 -97 -36 -130 -4
-33 -42 -161 -84 -285 -50 -147 -78 -248 -82 -290 -6 -77 50 -471 73 -507 24
-38 92 -67 154 -66 30 1 264 6 520 13 256 6 971 12 1590 14 l1125 2 32 48 c80
118 117 324 94 521 -14 120 -34 179 -152 460 -75 179 -94 233 -100 292 -6 56
-19 98 -57 180 -66 143 -102 232 -102 255 0 10 -7 21 -15 24 -9 4 -12 15 -9
33 8 38 -29 79 -81 92 -22 5 -116 12 -210 16 l-170 6 3 61 c2 46 -4 80 -25
141 -25 72 -31 81 -60 90 -18 5 -33 15 -33 22 0 14 -69 315 -116 511 -14 59
-34 121 -44 137 -10 17 -20 57 -24 90 -4 33 -17 83 -30 111 -32 69 -152 194
-240 248 -150 94 -344 128 -514 91z m313 -162 c38 -20 88 -60 136 -110 l77
-78 6 -95 c3 -52 19 -151 36 -220 29 -114 59 -308 75 -485 l7 -70 -33 -15 -34
-15 1 -86 c1 -57 7 -96 18 -117 9 -17 16 -41 16 -53 l0 -22 -292 6 c-161 4
-360 7 -442 7 l-149 0 6 38 c4 20 11 57 16 82 11 52 -4 132 -28 154 -14 13
-15 34 -9 158 5 79 17 225 28 326 11 100 20 247 20 325 l0 143 58 50 c31 28
72 59 91 68 56 30 150 46 246 43 78 -3 98 -8 150 -34z m532 -999 c8 -21 -19
-46 -40 -38 -17 6 -23 35 -10 47 12 13 44 7 50 -9z m-1310 -60 c8 -20 -21 -49
-41 -41 -9 4 -16 18 -16 32 0 20 5 25 25 25 14 0 28 -7 32 -16z m1500 -42 c13
-32 13 -33 -8 -30 -15 2 -28 15 -36 36 -13 32 -13 33 8 30 15 -2 28 -15 36
-36z m-1301 -18 c17 -40 18 -112 3 -151 -14 -38 -65 -90 -111 -114 -65 -33
-170 -19 -263 36 -48 28 -53 37 -66 120 -11 75 -3 122 21 128 16 4 18 -4 22
-78 2 -65 8 -90 24 -111 31 -42 90 -68 164 -72 55 -3 70 0 100 20 72 49 101
140 69 212 -13 28 -5 61 12 50 6 -3 17 -21 25 -40z m913 8 c-5 -2 -9 -14 -9
-27 0 -12 -7 -25 -15 -29 -10 -4 -15 -21 -16 -53 -2 -46 -2 -45 -9 17 -5 36
-6 75 -3 88 7 30 45 46 54 23 4 -9 2 -17 -2 -19z m406 -56 c9 -13 18 -46 22
-73 10 -92 -31 -164 -118 -209 -48 -24 -49 -24 -49 -4 0 13 10 24 27 31 38 14
62 37 84 81 28 54 23 148 -7 148 -8 0 -14 10 -14 25 0 33 34 34 55 1z m-385
-79 c0 -102 35 -149 133 -179 25 -7 37 -17 37 -29 0 -17 -3 -17 -52 -3 -74 22
-133 58 -147 91 -18 44 -19 182 -1 193 21 13 30 -6 30 -73z m315 7 c-8 -20
-15 -38 -15 -40 0 -2 -17 -15 -37 -29 -61 -41 -178 -30 -235 22 -23 21 -25 58
-2 49 16 -6 274 21 283 29 16 16 19 0 6 -31z m13 -72 c-45 -46 -93 -69 -153
-71 -53 -2 -134 21 -147 42 -19 30 -7 35 37 16 28 -13 68 -20 105 -20 78 -1
121 25 152 89 l23 48 8 -35 c7 -31 4 -38 -25 -69z m-1680 -33 c22 -51 73 -97
124 -115 35 -12 52 -44 23 -44 -27 0 -117 49 -152 82 -38 37 -47 71 -37 141 8
52 8 52 14 17 4 -19 16 -56 28 -81z m227 80 c66 -6 122 -13 124 -15 3 -2 -8
-18 -24 -34 -27 -28 -34 -30 -103 -30 -82 0 -130 17 -162 58 -28 34 -25 41 13
37 17 -3 86 -10 152 -16z m1465 -74 c-7 -8 -17 -15 -23 -15 -5 0 -2 9 8 20 21
23 35 19 15 -5z m-1286 -12 c-17 -69 -60 -116 -137 -148 -35 -14 -37 -14 -37
3 0 11 12 22 34 30 18 7 41 21 52 33 16 17 16 22 4 30 -13 8 -13 9 1 7 8 -2
30 14 48 35 18 20 35 37 37 37 3 0 1 -12 -2 -27z m-324 -33 l35 -19 -31 -1
c-19 0 -38 8 -49 20 -24 26 -3 26 45 0z m1083 3 c297 -12 157 -23 -298 -23
l-455 0 0 22 0 21 298 -6 c163 -4 368 -10 455 -14z m497 2 c-7 -8 -27 -15 -44
-15 l-31 1 25 14 c14 8 33 14 44 15 15 0 16 -3 6 -15z m508 -3 c65 -37 62
-102 -5 -102 -31 0 -34 2 -21 13 22 17 29 44 15 56 -19 15 -169 31 -300 31
-84 0 -116 3 -111 11 10 16 391 8 422 -9z m-703 -12 c13 -6 15 -9 5 -9 -8 0
-22 4 -30 9 -18 12 -2 12 25 0z m109 -37 c14 -98 18 -241 6 -248 -6 -4 -16 -3
-21 2 -10 10 -31 262 -23 275 13 21 33 5 38 -29z m559 12 c23 -10 22 -20 -5
-45 -21 -19 -34 -20 -272 -20 -221 1 -247 2 -221 15 17 7 44 25 60 39 l30 27
195 -4 c107 -2 203 -7 213 -12z m-2130 -30 c23 -20 67 -45 99 -57 32 -11 57
-22 56 -23 -2 -1 -110 -5 -241 -9 -222 -6 -240 -5 -276 13 -20 11 -43 26 -50
35 -11 13 -8 18 20 35 18 11 51 23 74 26 22 2 51 6 65 9 14 2 67 4 118 5 94 1
94 1 135 -34z m170 28 c-7 -2 -13 -11 -13 -19 0 -19 -18 -17 -60 6 l-35 19 60
0 c33 0 54 -3 48 -6z m132 -2 c-6 -6 -23 -17 -40 -25 -27 -14 -30 -14 -36 2
-7 20 11 30 56 31 18 1 25 -3 20 -8z m1070 -12 c19 -12 54 -27 78 -34 40 -12
35 -13 -98 -19 -77 -4 -203 -11 -280 -16 -77 -5 -257 -12 -400 -15 -143 -3
-303 -8 -355 -10 l-95 -5 61 29 c33 15 71 42 85 59 l24 31 472 0 c463 1 473 1
508 -20z m-1165 -140 c0 -132 -1 -139 -20 -139 -19 0 -20 7 -20 139 0 135 5
159 33 144 4 -2 7 -67 7 -144z m1315 50 c4 -17 5 -32 3 -35 -4 -3 -278 -11
-1030 -29 -261 -7 -268 -6 -268 13 0 17 10 20 77 26 42 3 123 6 181 6 57 0
278 9 491 20 507 26 503 26 523 28 11 1 19 -8 23 -29z m711 20 c3 -6 -1 -18
-10 -27 -14 -14 -58 -18 -318 -24 -166 -4 -303 -7 -304 -5 -1 1 -5 17 -9 35
l-7 32 321 0 c221 0 322 -3 327 -11z m-2076 -69 c0 -14 -9 -20 -32 -24 -45 -7
-660 -15 -675 -9 -19 7 -16 30 5 42 10 7 146 11 360 11 333 0 342 -1 342 -20z
m1372 -66 c6 -71 68 -74 68 -4 0 22 5 40 10 40 6 0 26 -15 46 -33 68 -62 55
-170 -25 -215 -45 -26 -90 -28 -131 -7 -89 46 -104 166 -29 230 42 35 57 32
61 -11z m-1372 -33 c0 -41 3 -51 20 -56 31 -10 49 11 52 63 l3 47 42 -40 c54
-53 63 -97 34 -157 -24 -51 -66 -79 -119 -80 -107 -1 -175 109 -127 203 14 27
68 69 88 69 4 0 7 -22 7 -49z"/>
</g>
</svg>
